<svg width="64" height="64" viewBox="0 0 64 64" fill="none" xmlns="http://www.w3.org/2000/svg">
  <!-- Background circle -->
  <circle cx="32" cy="32" r="32" fill="#2563EB"/>

  <!-- Book icon -->
  <path d="M20 16C20 14.8954 20.8954 14 22 14H32V50H22C20.8954 50 20 49.1046 20 48V16Z" fill="#FFFFFF"/>
  <path d="M32 14H42C43.1046 14 44 14.8954 44 16V48C44 49.1046 43.1046 50 42 50H32V14Z" fill="#E0E7FF"/>

  <!-- Central binding -->
  <rect x="31" y="14" width="2" height="36" fill="#93C5FD"/>

  <!-- AI sparkle effect -->
  <circle cx="48" cy="20" r="3" fill="#FCD34D"/>
  <path d="M48 16L48 24M44 20L52 20" stroke="#FCD34D" stroke-width="1.5" stroke-linecap="round"/>

  <!-- Small sparkles -->
  <circle cx="16" cy="24" r="1.5" fill="#FCD34D" opacity="0.8"/>
  <circle cx="50" cy="44" r="1.5" fill="#FCD34D" opacity="0.8"/>
</svg>
